<svg width="18" height="18" viewBox="0 0 18 18" fill="none" xmlns="http://www.w3.org/2000/svg">
<g id="Gift">
<path fill-rule="evenodd" clip-rule="evenodd" d="M0.5 8.05556V7.11111C0.5 6.06791 1.34568 5.22222 2.38889 5.22222H6.63889H9H11.3611H15.6111C16.6543 5.22222 17.5 6.06791 17.5 7.11111V8.05556C17.5 9.09876 16.6543 9.94444 15.6111 9.94444V15.6111C15.6111 16.6543 14.7654 17.5 13.7222 17.5H9H4.27778C3.23457 17.5 2.38889 16.6543 2.38889 15.6111V9.94444C1.34568 9.94444 0.5 9.09876 0.5 8.05556Z" fill="white" fill-opacity="0.2"/>
<path d="M2.38889 9.94444V9.94444C1.34568 9.94444 0.5 9.09876 0.5 8.05556V8.05556M2.38889 9.94444H15.6111M2.38889 9.94444V15.6111M2.38889 9.94444C1.34568 9.94444 0.5 9.09876 0.5 8.05556M15.6111 9.94444V9.94444C16.6543 9.94444 17.5 9.09876 17.5 8.05556V8.05556M15.6111 9.94444C16.6543 9.94444 17.5 9.09876 17.5 8.05556M15.6111 9.94444V15.6111M9 17.5V5.22222M9 17.5H13.7222M9 17.5H4.27778M9 5.22222V2.86111M9 5.22222H6.63889M9 5.22222H2.38889M9 5.22222H15.6111M9 5.22222H11.3611M9 2.86111C9 1.55711 7.94289 0.5 6.63889 0.5C5.33488 0.5 4.27778 1.55711 4.27778 2.86111C4.27778 4.16512 5.33488 5.22222 6.63889 5.22222M9 2.86111C9 1.55711 10.0571 0.5 11.3611 0.5C12.6651 0.5 13.7222 1.55711 13.7222 2.86111C13.7222 4.16512 12.6651 5.22222 11.3611 5.22222M6.63889 5.22222H2.38889M11.3611 5.22222H15.6111M0.5 8.05556V7.11111M0.5 7.11111C0.5 6.06791 1.34568 5.22222 2.38889 5.22222M0.5 7.11111V7.11111C0.5 6.06791 1.34568 5.22222 2.38889 5.22222V5.22222M15.6111 5.22222C16.6543 5.22222 17.5 6.06791 17.5 7.11111M15.6111 5.22222V5.22222C16.6543 5.22222 17.5 6.06791 17.5 7.11111V7.11111M17.5 7.11111V8.05556M15.6111 15.6111C15.6111 16.6543 14.7654 17.5 13.7222 17.5M15.6111 15.6111V15.6111C15.6111 16.6543 14.7654 17.5 13.7222 17.5V17.5M4.27778 17.5C3.23457 17.5 2.38889 16.6543 2.38889 15.6111M4.27778 17.5V17.5C3.23457 17.5 2.38889 16.6543 2.38889 15.6111V15.6111" stroke="white" stroke-linecap="round" stroke-linejoin="round"/>
</g>
</svg>
