<svg width="24" height="18" viewBox="0 0 24 18" fill="none" xmlns="http://www.w3.org/2000/svg">
<g id="Group">
<path d="M15 4C15 5.65685 13.6569 7 12 7C10.3431 7 9 5.65685 9 4C9 2.34315 10.3431 1 12 1C13.6569 1 15 2.34315 15 4Z" fill="white" fill-opacity="0.2"/>
<path d="M21 7C21 8.10457 20.1046 9 19 9C17.8954 9 17 8.10457 17 7C17 5.89543 17.8954 5 19 5C20.1046 5 21 5.89543 21 7Z" fill="white" fill-opacity="0.2"/>
<path d="M7 7C7 8.10457 6.10457 9 5 9C3.89543 9 3 8.10457 3 7C3 5.89543 3.89543 5 5 5C6.10457 5 7 5.89543 7 7Z" fill="white" fill-opacity="0.2"/>
<path d="M18 14C18 14.6361 17.6041 15.2259 16.9287 15.7113C15.8449 16.4902 14.0415 17 12 17C9.95848 17 8.1551 16.4902 7.07131 15.7113C6.39594 15.2259 6 14.6361 6 14C6 13.3639 6.39594 12.7741 7.07131 12.2887C8.1551 11.5098 9.95848 11 12 11C14.0415 11 15.8449 11.5098 16.9287 12.2887C17.6041 12.7741 18 13.3639 18 14Z" fill="white" fill-opacity="0.2"/>
<path d="M1 14C1 15.1046 2.79086 16 5 16C5.7582 16 6.46714 15.8945 7.07131 15.7113C6.39594 15.2259 6 14.6361 6 14C6 13.3639 6.39594 12.7741 7.07131 12.2887C6.46714 12.1055 5.7582 12 5 12C2.79086 12 1 12.8954 1 14Z" fill="white" fill-opacity="0.2"/>
<path d="M19 16C21.2091 16 23 15.1046 23 14C23 12.8954 21.2091 12 19 12C18.2418 12 17.5329 12.1055 16.9287 12.2887C17.6041 12.7741 18 13.3639 18 14C18 14.6361 17.6041 15.2259 16.9287 15.7113C17.5329 15.8945 18.2418 16 19 16Z" fill="white" fill-opacity="0.2"/>
<path d="M16.9287 12.2887C17.5329 12.1055 18.2418 12 19 12C21.2091 12 23 12.8954 23 14C23 15.1046 21.2091 16 19 16C18.2418 16 17.5329 15.8945 16.9287 15.7113M16.9287 12.2887C15.8449 11.5098 14.0415 11 12 11C9.95848 11 8.1551 11.5098 7.07131 12.2887M16.9287 12.2887C17.6041 12.7741 18 13.3639 18 14C18 14.6361 17.6041 15.2259 16.9287 15.7113M16.9287 15.7113C15.8449 16.4902 14.0415 17 12 17C9.95848 17 8.1551 16.4902 7.07131 15.7113M7.07131 12.2887C6.46714 12.1055 5.7582 12 5 12C2.79086 12 1 12.8954 1 14C1 15.1046 2.79086 16 5 16C5.7582 16 6.46714 15.8945 7.07131 15.7113M7.07131 12.2887C6.39594 12.7741 6 13.3639 6 14C6 14.6361 6.39594 15.2259 7.07131 15.7113M15 4C15 5.65685 13.6569 7 12 7C10.3431 7 9 5.65685 9 4C9 2.34315 10.3431 1 12 1C13.6569 1 15 2.34315 15 4ZM21 7C21 8.10457 20.1046 9 19 9C17.8954 9 17 8.10457 17 7C17 5.89543 17.8954 5 19 5C20.1046 5 21 5.89543 21 7ZM7 7C7 8.10457 6.10457 9 5 9C3.89543 9 3 8.10457 3 7C3 5.89543 3.89543 5 5 5C6.10457 5 7 5.89543 7 7Z" stroke="white"/>
</g>
</svg>
