<svg width="168" height="105" viewBox="0 0 168 105" fill="none" xmlns="http://www.w3.org/2000/svg">
<g filter="url(#filter0_d_17_19667)">
<rect x="4" width="160" height="97" rx="16" fill="white" fill-opacity="0.05" shape-rendering="crispEdges"/>
<rect x="66.5" y="16.5" width="35" height="35" rx="17.5" fill="white" fill-opacity="0.1"/>
<path d="M89.1765 32.5882C89.1765 36.2268 86.2268 39.1765 82.5882 39.1765C78.9497 39.1765 76 36.2268 76 32.5882C76 28.9497 78.9497 26 82.5882 26C86.2268 26 89.1765 28.9497 89.1765 32.5882Z" fill="white" fill-opacity="0.2"/>
<path d="M87.2941 37.2941L92 42M89.1765 32.5882C89.1765 36.2268 86.2268 39.1765 82.5882 39.1765C78.9497 39.1765 76 36.2268 76 32.5882C76 28.9497 78.9497 26 82.5882 26C86.2268 26 89.1765 28.9497 89.1765 32.5882Z" stroke="white" stroke-linecap="round" stroke-linejoin="round"/>
<rect x="66.5" y="16.5" width="35" height="35" rx="17.5" stroke="white"/>
<path d="M46.1272 68.07C45.8752 67.5847 45.5252 67.2207 45.0772 66.978C44.6292 66.726 44.1112 66.6 43.5232 66.6C42.8792 66.6 42.3052 66.7447 41.8012 67.034C41.2972 67.3233 40.9005 67.734 40.6112 68.266C40.3312 68.798 40.1912 69.414 40.1912 70.114C40.1912 70.814 40.3312 71.4347 40.6112 71.976C40.9005 72.508 41.2972 72.9187 41.8012 73.208C42.3052 73.4973 42.8792 73.642 43.5232 73.642C44.3912 73.642 45.0958 73.3993 45.6372 72.914C46.1785 72.4287 46.5098 71.7707 46.6312 70.94H42.9772V69.666H48.3392V70.912C48.2365 71.668 47.9658 72.3633 47.5272 72.998C47.0978 73.6327 46.5332 74.1413 45.8332 74.524C45.1425 74.8973 44.3725 75.084 43.5232 75.084C42.6085 75.084 41.7732 74.874 41.0172 74.454C40.2612 74.0247 39.6592 73.432 39.2112 72.676C38.7725 71.92 38.5532 71.066 38.5532 70.114C38.5532 69.162 38.7725 68.308 39.2112 67.552C39.6592 66.796 40.2612 66.208 41.0172 65.788C41.7825 65.3587 42.6178 65.144 43.5232 65.144C44.5592 65.144 45.4785 65.4007 46.2812 65.914C47.0932 66.418 47.6812 67.1367 48.0452 68.07H46.1272ZM53.2593 75.126C52.5313 75.126 51.8733 74.9627 51.2853 74.636C50.6973 74.3 50.2353 73.8333 49.8993 73.236C49.5633 72.6293 49.3953 71.9293 49.3953 71.136C49.3953 70.352 49.5679 69.6567 49.9133 69.05C50.2586 68.4433 50.7299 67.9767 51.3273 67.65C51.9246 67.3233 52.5919 67.16 53.3293 67.16C54.0666 67.16 54.7339 67.3233 55.3313 67.65C55.9286 67.9767 56.3999 68.4433 56.7453 69.05C57.0906 69.6567 57.2633 70.352 57.2633 71.136C57.2633 71.92 57.0859 72.6153 56.7313 73.222C56.3766 73.8287 55.8913 74.3 55.2753 74.636C54.6686 74.9627 53.9966 75.126 53.2593 75.126ZM53.2593 73.74C53.6699 73.74 54.0526 73.642 54.4073 73.446C54.7713 73.25 55.0653 72.956 55.2893 72.564C55.5133 72.172 55.6253 71.696 55.6253 71.136C55.6253 70.576 55.5179 70.1047 55.3033 69.722C55.0886 69.33 54.8039 69.036 54.4493 68.84C54.0946 68.644 53.7119 68.546 53.3013 68.546C52.8906 68.546 52.5079 68.644 52.1533 68.84C51.8079 69.036 51.5326 69.33 51.3273 69.722C51.1219 70.1047 51.0193 70.576 51.0193 71.136C51.0193 71.9667 51.2293 72.6107 51.6493 73.068C52.0786 73.516 52.6153 73.74 53.2593 73.74ZM52.1253 66.194C51.8919 66.194 51.6913 66.1147 51.5233 65.956C51.3646 65.788 51.2853 65.5873 51.2853 65.354C51.2853 65.1207 51.3646 64.9247 51.5233 64.766C51.6913 64.598 51.8919 64.514 52.1253 64.514C52.3586 64.514 52.5546 64.598 52.7133 64.766C52.8813 64.9247 52.9653 65.1207 52.9653 65.354C52.9653 65.5873 52.8813 65.788 52.7133 65.956C52.5546 66.1147 52.3586 66.194 52.1253 66.194ZM54.5333 66.194C54.2999 66.194 54.0993 66.1147 53.9313 65.956C53.7726 65.788 53.6933 65.5873 53.6933 65.354C53.6933 65.1207 53.7726 64.9247 53.9313 64.766C54.0993 64.598 54.2999 64.514 54.5333 64.514C54.7666 64.514 54.9626 64.598 55.1213 64.766C55.2893 64.9247 55.3733 65.1207 55.3733 65.354C55.3733 65.5873 55.2893 65.788 55.1213 65.956C54.9626 66.1147 54.7666 66.194 54.5333 66.194ZM62.733 67.16C63.3397 67.16 63.881 67.286 64.357 67.538C64.8423 67.79 65.2203 68.1633 65.491 68.658C65.7617 69.1527 65.897 69.75 65.897 70.45V75H64.315V70.688C64.315 69.9973 64.1423 69.47 63.797 69.106C63.4517 68.7327 62.9803 68.546 62.383 68.546C61.7857 68.546 61.3097 68.7327 60.955 69.106C60.6097 69.47 60.437 69.9973 60.437 70.688V75H58.841V67.286H60.437V68.168C60.6983 67.8507 61.0297 67.6033 61.431 67.426C61.8417 67.2487 62.2757 67.16 62.733 67.16ZM67.4008 71.108C67.4008 70.3333 67.5595 69.6473 67.8768 69.05C68.2035 68.4527 68.6421 67.9907 69.1928 67.664C69.7528 67.328 70.3735 67.16 71.0548 67.16C71.5588 67.16 72.0535 67.272 72.5388 67.496C73.0335 67.7107 73.4255 68 73.7148 68.364V64.64H75.3248V75H73.7148V73.838C73.4535 74.2113 73.0895 74.5193 72.6228 74.762C72.1655 75.0047 71.6381 75.126 71.0408 75.126C70.3688 75.126 69.7528 74.958 69.1928 74.622C68.6421 74.2767 68.2035 73.8007 67.8768 73.194C67.5595 72.578 67.4008 71.8827 67.4008 71.108ZM73.7148 71.136C73.7148 70.604 73.6028 70.142 73.3788 69.75C73.1641 69.358 72.8795 69.0593 72.5248 68.854C72.1701 68.6487 71.7875 68.546 71.3768 68.546C70.9661 68.546 70.5835 68.6487 70.2288 68.854C69.8741 69.05 69.5848 69.344 69.3608 69.736C69.1461 70.1187 69.0388 70.576 69.0388 71.108C69.0388 71.64 69.1461 72.1067 69.3608 72.508C69.5848 72.9093 69.8741 73.2173 70.2288 73.432C70.5928 73.6373 70.9755 73.74 71.3768 73.74C71.7875 73.74 72.1701 73.6373 72.5248 73.432C72.8795 73.2267 73.1641 72.928 73.3788 72.536C73.6028 72.1347 73.7148 71.668 73.7148 71.136ZM84.4911 70.954C84.4911 71.2433 84.4724 71.5047 84.4351 71.738H78.5411C78.5878 72.354 78.8164 72.8487 79.2271 73.222C79.6378 73.5953 80.1418 73.782 80.7391 73.782C81.5978 73.782 82.2044 73.4227 82.5591 72.704H84.2811C84.0478 73.4133 83.6231 73.9967 83.0071 74.454C82.4004 74.902 81.6444 75.126 80.7391 75.126C80.0018 75.126 79.3391 74.9627 78.7511 74.636C78.1724 74.3 77.7151 73.8333 77.3791 73.236C77.0524 72.6293 76.8891 71.9293 76.8891 71.136C76.8891 70.3427 77.0478 69.6473 77.3651 69.05C77.6918 68.4433 78.1444 67.9767 78.7231 67.65C79.3111 67.3233 79.9831 67.16 80.7391 67.16C81.4671 67.16 82.1158 67.3187 82.6851 67.636C83.2544 67.9533 83.6978 68.4013 84.0151 68.98C84.3324 69.5493 84.4911 70.2073 84.4911 70.954ZM82.8251 70.45C82.8158 69.862 82.6058 69.3907 82.1951 69.036C81.7844 68.6813 81.2758 68.504 80.6691 68.504C80.1184 68.504 79.6471 68.6813 79.2551 69.036C78.8631 69.3813 78.6298 69.8527 78.5551 70.45H82.8251ZM87.6577 68.406C87.8911 68.014 88.1991 67.7107 88.5817 67.496C88.9737 67.272 89.4357 67.16 89.9677 67.16V68.812H89.5617C88.9364 68.812 88.4604 68.9707 88.1337 69.288C87.8164 69.6053 87.6577 70.156 87.6577 70.94V75H86.0617V67.286H87.6577V68.406ZM92.2468 66.264C91.9574 66.264 91.7148 66.166 91.5188 65.97C91.3228 65.774 91.2248 65.5313 91.2248 65.242C91.2248 64.9527 91.3228 64.71 91.5188 64.514C91.7148 64.318 91.9574 64.22 92.2468 64.22C92.5268 64.22 92.7648 64.318 92.9608 64.514C93.1568 64.71 93.2548 64.9527 93.2548 65.242C93.2548 65.5313 93.1568 65.774 92.9608 65.97C92.7648 66.166 92.5268 66.264 92.2468 66.264ZM93.0308 67.286V75H91.4348V67.286H93.0308ZM105.049 65.27V66.572H102.459V75H100.863V66.572H98.2589V65.27H105.049ZM106.133 71.108C106.133 70.3333 106.292 69.6473 106.609 69.05C106.936 68.4527 107.375 67.9907 107.925 67.664C108.485 67.328 109.101 67.16 109.773 67.16C110.38 67.16 110.907 67.2813 111.355 67.524C111.813 67.7573 112.177 68.0513 112.447 68.406V67.286H114.057V75H112.447V73.852C112.177 74.216 111.808 74.5193 111.341 74.762C110.875 75.0047 110.343 75.126 109.745 75.126C109.083 75.126 108.476 74.958 107.925 74.622C107.375 74.2767 106.936 73.8007 106.609 73.194C106.292 72.578 106.133 71.8827 106.133 71.108ZM112.447 71.136C112.447 70.604 112.335 70.142 112.111 69.75C111.897 69.358 111.612 69.0593 111.257 68.854C110.903 68.6487 110.52 68.546 110.109 68.546C109.699 68.546 109.316 68.6487 108.961 68.854C108.607 69.05 108.317 69.344 108.093 69.736C107.879 70.1187 107.771 70.576 107.771 71.108C107.771 71.64 107.879 72.1067 108.093 72.508C108.317 72.9093 108.607 73.2173 108.961 73.432C109.325 73.6373 109.708 73.74 110.109 73.74C110.52 73.74 110.903 73.6373 111.257 73.432C111.612 73.2267 111.897 72.928 112.111 72.536C112.335 72.1347 112.447 71.668 112.447 71.136ZM117.75 68.406C117.983 68.014 118.291 67.7107 118.674 67.496C119.066 67.272 119.528 67.16 120.06 67.16V68.812H119.654C119.028 68.812 118.552 68.9707 118.226 69.288C117.908 69.6053 117.75 70.156 117.75 70.94V75H116.154V67.286H117.75V68.406ZM120.995 71.108C120.995 70.3333 121.153 69.6473 121.471 69.05C121.797 68.4527 122.236 67.9907 122.787 67.664C123.347 67.328 123.963 67.16 124.635 67.16C125.241 67.16 125.769 67.2813 126.217 67.524C126.674 67.7573 127.038 68.0513 127.309 68.406V67.286H128.919V75H127.309V73.852C127.038 74.216 126.669 74.5193 126.203 74.762C125.736 75.0047 125.204 75.126 124.607 75.126C123.944 75.126 123.337 74.958 122.787 74.622C122.236 74.2767 121.797 73.8007 121.471 73.194C121.153 72.578 120.995 71.8827 120.995 71.108ZM127.309 71.136C127.309 70.604 127.197 70.142 126.973 69.75C126.758 69.358 126.473 69.0593 126.119 68.854C125.764 68.6487 125.381 68.546 124.971 68.546C124.56 68.546 124.177 68.6487 123.823 68.854C123.468 69.05 123.179 69.344 122.955 69.736C122.74 70.1187 122.633 70.576 122.633 71.108C122.633 71.64 122.74 72.1067 122.955 72.508C123.179 72.9093 123.468 73.2173 123.823 73.432C124.187 73.6373 124.569 73.74 124.971 73.74C125.381 73.74 125.764 73.6373 126.119 73.432C126.473 73.2267 126.758 72.928 126.973 72.536C127.197 72.1347 127.309 71.668 127.309 71.136Z" fill="white"/>
<rect x="4.5" y="0.5" width="159" height="96" rx="15.5" stroke="white" shape-rendering="crispEdges"/>
</g>
<defs>
<filter id="filter0_d_17_19667" x="0" y="0" width="168" height="105" filterUnits="userSpaceOnUse" color-interpolation-filters="sRGB">
<feFlood flood-opacity="0" result="BackgroundImageFix"/>
<feColorMatrix in="SourceAlpha" type="matrix" values="0 0 0 0 0 0 0 0 0 0 0 0 0 0 0 0 0 0 127 0" result="hardAlpha"/>
<feOffset dy="4"/>
<feGaussianBlur stdDeviation="2"/>
<feComposite in2="hardAlpha" operator="out"/>
<feColorMatrix type="matrix" values="0 0 0 0 0 0 0 0 0 0 0 0 0 0 0 0 0 0 0.25 0"/>
<feBlend mode="normal" in2="BackgroundImageFix" result="effect1_dropShadow_17_19667"/>
<feBlend mode="normal" in="SourceGraphic" in2="effect1_dropShadow_17_19667" result="shape"/>
</filter>
</defs>
</svg>
